<?xml version="1.0" encoding="UTF-8" standalone="no"?>
<svg
   xmlns:dc="http://purl.org/dc/elements/1.1/"
   xmlns:cc="http://creativecommons.org/ns#"
   xmlns:rdf="http://www.w3.org/1999/02/22-rdf-syntax-ns#"
   xmlns:svg="http://www.w3.org/2000/svg"
   xmlns="http://www.w3.org/2000/svg"
   height="150"
   width="153.60001"
   version="1.1"
   id="Capa_1"
   x="0px"
   y="0px"
   viewBox="0 0 62.460181 49.691629"
   xml:space="preserve"><metadata
     id="metadata3721"><rdf:RDF><cc:Work
         rdf:about=""><dc:format>image/svg+xml</dc:format><dc:type
           rdf:resource="http://purl.org/dc/dcmitype/StillImage" /><dc:title></dc:title></cc:Work></rdf:RDF></metadata><defs
     id="defs3719"><marker
       style="overflow:visible"
       id="Arrow1Lend"
       refX="0"
       refY="0"
       orient="auto"><path
         transform="matrix(-0.8,0,0,-0.8,-10,0)"
         style="fill:#000000;fill-opacity:1;fill-rule:evenodd;stroke:#000000;stroke-width:1.00000003pt;stroke-opacity:1"
         d="M 0,0 5,-5 -12.5,0 5,5 Z"
         id="path4605" /></marker></defs><g
     transform="matrix(0.414,0,0,0.414,102.71241,44.122733)"
     id="g3684"><circle
       transform="matrix(0.98222661,0,0,0.98222661,-261.063,-325.3922)"
       r="0"
       cy="0"
       cx="0"
       id="path4574" /><circle
       r="73.666992"
       cy="-46.562603"
       cx="-172.66261"
       id="path5010"
       style="fill:#e98d58;fill-opacity:1;stroke-width:2.6564033;stroke-linecap:round;stroke-linejoin:round;stroke-miterlimit:4;stroke-dasharray:63.75367729, 63.75367729;stroke-dashoffset:0;paint-order:fill markers stroke" /><g
       style="fill:#ecf0f1;fill-opacity:1"
       id="g14"
       transform="matrix(0.16803589,0,0,0.18280866,-217.05432,-91.619454)"><g
         style="fill:#ecf0f1;fill-opacity:1"
         id="g12"><path
           style="fill:#ecf0f1;fill-opacity:1"
           id="path10"
           d="m 264.181,76.909 c -93.646,0 -169.561,75.915 -169.561,169.561 0,93.646 75.915,169.561 169.561,169.561 93.646,0 169.561,-75.915 169.561,-169.561 0,-93.646 -75.915,-169.561 -169.561,-169.561 z m -10e-4,298.22 c -70.942,0 -128.658,-57.716 -128.658,-128.658 0,-70.942 57.716,-128.658 128.658,-128.658 70.942,0 128.658,57.716 128.658,128.658 0,70.942 -57.715,128.658 -128.658,128.658 z" /></g></g><g
       style="fill:#ecf0f1;fill-opacity:1"
       id="g20"
       transform="matrix(0.16803589,0,0,0.18280866,-217.05432,-91.619454)"><g
         style="fill:#ecf0f1;fill-opacity:1"
         id="g18"><path
           style="fill:#ecf0f1;fill-opacity:1"
           id="path16"
           d="m 264.18,152.299 c -51.926,0 -94.171,42.245 -94.171,94.171 0,51.926 42.245,94.171 94.171,94.171 51.926,0 94.171,-42.245 94.171,-94.171 0,-51.926 -42.244,-94.171 -94.171,-94.171 z" /></g></g><g
       style="fill:#ecf0f1;fill-opacity:1"
       id="g26"
       transform="matrix(0.19184112,0,0,0.20870671,-223.3432,-98.002546)"><g
         style="fill:#ecf0f1;fill-opacity:1"
         id="g24"><path
           style="fill:#ecf0f1;fill-opacity:1"
           id="path22"
           d="M 501.315,260.687 V 54.64 c 0,-1.988 -1.269,-3.755 -3.155,-4.39 -1.884,-0.634 -3.963,0.007 -5.166,1.591 -25.708,33.903 -39.622,75.283 -39.622,117.83 v 75.378 c 0,8.645 7.008,15.654 15.654,15.654 h 6.526 c -6.433,66.443 -10.684,159.37 -10.684,170.251 0,17.142 10.551,31.038 23.566,31.038 13.015,0 23.566,-13.897 23.566,-31.038 0,-10.882 -4.251,-103.824 -10.685,-170.267 z" /></g></g><g
       style="fill:#ecf0f1;fill-opacity:1"
       id="g32"
       transform="matrix(0.19184112,0,0,0.20870671,-223.3432,-98.002546)"><g
         style="fill:#ecf0f1;fill-opacity:1"
         id="g30"><path
           style="fill:#ecf0f1;fill-opacity:1"
           id="path28"
           d="m 68.417,219.843 c 13.042,-7.9 21.759,-22.224 21.759,-38.586 L 83.716,75.636 c -0.247,-4.026 -3.584,-7.165 -7.618,-7.165 -4.363,0 -7.839,3.655 -7.622,8.01 l 4.201,84.709 c 0,4.762 -3.861,8.621 -8.621,8.621 -4.761,0 -8.621,-3.861 -8.621,-8.621 L 53.336,76.516 c -0.111,-4.475 -3.77,-8.044 -8.247,-8.044 -4.477,0 -8.135,3.57 -8.247,8.044 l -2.099,84.674 c 0,4.762 -3.861,8.621 -8.621,8.621 -4.761,0 -8.621,-3.861 -8.621,-8.621 l 4.201,-84.709 c 0.216,-4.357 -3.262,-8.01 -7.622,-8.01 -4.034,0 -7.371,3.139 -7.617,7.165 L 0,181.258 c 0,16.362 8.716,30.685 21.759,38.586 8.488,5.141 13.22,14.753 12.126,24.617 -7.363,66.358 -12.363,174.693 -12.363,186.494 0,17.142 10.551,31.038 23.566,31.038 13.015,0 23.566,-13.897 23.566,-31.038 0,-11.801 -5.001,-120.136 -12.363,-186.494 -1.095,-9.859 3.642,-19.479 12.126,-24.618 z" /></g></g></g><g
     transform="translate(-5.3676763,-76.689642)"
     id="g3686" /><g
     transform="translate(-5.3676763,-76.689642)"
     id="g3688" /><g
     transform="translate(-5.3676763,-76.689642)"
     id="g3690" /><g
     transform="translate(-5.3676763,-76.689642)"
     id="g3692" /><g
     transform="translate(-5.3676763,-76.689642)"
     id="g3694" /><g
     transform="translate(-5.3676763,-76.689642)"
     id="g3696" /><g
     transform="translate(-5.3676763,-76.689642)"
     id="g3698" /><g
     transform="translate(-5.3676763,-76.689642)"
     id="g3700" /><g
     transform="translate(-5.3676763,-76.689642)"
     id="g3702" /><g
     transform="translate(-5.3676763,-76.689642)"
     id="g3704" /><g
     transform="translate(-5.3676763,-76.689642)"
     style="display:inline"
     id="g3706" /><g
     transform="translate(-5.3676763,-76.689642)"
     id="g3708" /><g
     transform="translate(-5.3676763,-76.689642)"
     id="g3710" /><g
     transform="translate(-5.3676763,-76.689642)"
     id="g3712" /><g
     transform="translate(-5.3676763,-76.689642)"
     id="g3714" /></svg>
