<?xml version="1.0" encoding="UTF-8"?>
<svg width="89.907196" height="14.30994" xmlns="http://www.w3.org/2000/svg" xmlns:svg="http://www.w3.org/2000/svg">

  <defs>
    <linearGradient id="silver-gradient" x1="0" x2="0" y1="0" y2="1">
      <stop offset="0%" stop-color="#eee"/>
      <stop offset="100%" stop-color="#ccc"/>
    </linearGradient>
    <filter id="dropshadow" height="130%">
      <feGaussianBlur in="SourceAlpha" stdDeviation="1"/> <!-- stdDeviation is how much to blur -->
      <feOffset dx="1" dy="1" result="offsetblur"/> <!-- how much to offset -->
      <feMerge>
        <feMergeNode/> <!-- this contains the offset blurred image -->
        <feMergeNode in="SourceGraphic"/> <!-- this contains the element that the filter is applied to -->
      </feMerge>
    </filter>
  </defs>

 <metadata id="metadata3224">image/svg+xml</metadata>
 <g>
  <title>Layer 1</title>
  <g id="layer1">
   <g id="g3169">
    <path filter="url(#dropshadow)" fill="#ffdab9" fill-rule="evenodd" stroke-width="1px" id="path2383" d="m11.445884,7.945023c1.82874,-0.56452 2.6406,-1.4722 2.75152,-2.6795c0.15982,-1.75643 -2.76471,-2.56231 -4.26712,-1.85846c-0.90429,0.42365 -2.09593,1.47711 -2.16173,2.73093c0.13758,2.8843 2.01784,4.21234 4.40411,4.6426c4.62978,0.83477 12.36992,-4.74316 18.28439,-5.69803c6.08331,-0.98213 8.54231,1.44229 9.93001,3.26747c-2.89049,-1.99957 -6.32354,-2.46037 -9.08562,-2.01396c-6.33747,1.02427 -12.22593,6.74202 -19.1295,5.91513c-3.50687,-0.54131 -6.35772,-3.3791 -5.4412,-6.72765c1.44074,-4.681 7.02833,-3.91888 7.87187,-1.41317c0.84983,2.52438 -1.2752,4.00002 -3.15673,3.83464z"/>
    <path filter="url(#dropshadow)" fill="#ffdab9" fill-rule="evenodd" stroke-width="1px" d="m44.252874,2.810343c-0.68392,-0.07129 -1.38903,0.24863 -1.77314,1.20583c-0.07406,-0.68724 -0.71819,-1.04746 -1.37978,-1.06145c-2.12345,0.41007 -1.51886,2.39718 -0.49696,3.42248c0.88944,0.89239 1.95193,1.74132 2.41978,2.46283c0.57774,-1.00293 0.77662,-0.95683 1.40231,-1.64222c-1.19022,-1.38352 -0.10039,-2.74693 1.58956,-2.40677c0.20079,-0.9316 -0.75343,-1.87561 -1.76177,-1.9807z" id="path3173"/>
    <path filter="url(#dropshadow)" fill="#ffdab9" fill-rule="evenodd" stroke-width="1px" d="m42.257814,9.862003c-10.16382,-5.13949 -14.06599,0.7935 -11.60103,4.44794c-1.20812,-3.89144 1.69054,-5.42858 4.41483,-5.34451c4.58649,0.14155 8.48584,2.86143 10.13064,3.55963l-2.94444,-2.66306z" id="path2390"/>
    <path filter="url(#dropshadow)" fill="#ffdab9" fill-rule="evenodd" stroke-width="1px" id="path3212" d="m44.361624,6.649633c0.60791,0.98613 1.75585,2.07503 2.14506,3.3914c0.9048,-1.36077 2.40317,-2.01964 3.07401,-3.08679c0.79897,-1.21481 -1.68257,-2.85934 -2.53562,-0.97806c-0.19805,-1.57178 -3.71847,-1.24327 -2.68345,0.67345z"/>
    <path filter="url(#dropshadow)" fill="#ffdab9" fill-rule="evenodd" stroke-width="1px" d="m48.229834,9.792603c10.16382,-5.13949 14.55175,0.8629 12.08679,4.51734c1.20812,-3.89144 -1.69053,-5.42858 -4.41483,-5.3445c-4.58648,0.14154 -8.06946,2.23686 -9.71427,3.49023l2.04231,-2.66307z" id="path3219"/>
    <path filter="url(#dropshadow)" fill="#ffdab9" fill-rule="evenodd" stroke-width="1px" d="m7.693354,8.170703c-6.03866,-5.13949 -10.56234,2.4978 -5.52181,3.87026c-1.63295,-1.11144 -1.74561,-2.91157 -0.70313,-3.88857c1.25926,-0.8385 2.8288,-0.66759 4.36765,0.17371c1.37373,0.89452 2.42287,2.13742 3.03872,2.57742l-1.18143,-2.73282z" id="path3221"/>
    <path filter="url(#dropshadow)" fill="#ffdab9" fill-rule="evenodd" stroke-width="1px" id="path3223" d="m78.147284,8.500183c-1.82874,-0.56452 -2.64061,-1.4722 -2.75152,-2.6795c-0.15983,-1.75643 2.7647,-2.56231 4.26712,-1.85846c0.90429,0.42365 2.09593,1.47711 2.16173,2.73093c-0.13758,2.8843 -2.01784,4.21234 -4.40411,4.6426c-4.62979,0.83477 -12.36992,-4.74316 -18.28439,-5.69803c-6.08331,-0.98213 -8.54231,1.44229 -9.93001,3.26747c2.89049,-1.99957 6.32354,-2.46037 9.08562,-2.01396c6.33747,1.02428 12.22593,6.74202 19.1295,5.91513c3.50687,-0.54131 6.35772,-3.3791 5.44119,-6.72765c-1.44073,-4.681 -7.02833,-3.91888 -7.87186,-1.41317c-0.84983,2.52439 1.2752,4.00002 3.15673,3.83464z"/>
    <path filter="url(#dropshadow)" fill="#ffdab9" fill-rule="evenodd" stroke-width="1px" d="m82.233274,8.559133c6.03867,-5.13949 9.45749,0.95099 6.71507,3.03057c1.14375,-2.39532 -0.50744,-3.94145 -2.12603,-3.85737c-2.72498,0.14154 -4.79323,2.86142 -5.77047,3.55962l1.18143,-2.73282z" id="path3225"/>
    <path fill="url(#silver-gradient)" fill-rule="evenodd" stroke="#b29881" stroke-width="1px" d="m40.685844,8.287473c1.62794,1.59166 3.66141,3.07655 4.84285,5.35915c1.22601,-2.57148 2.43677,-3.84839 3.70161,-4.9735c0.81403,-0.80807 1.59449,-1.54065 2.18436,-2.2547c0.82859,-0.93697 1.0082,-2.75744 0.72502,-3.65829c-1.26663,-3.19829 -4.39459,-2.62245 -6.13939,-0.37293c-1.74827,-1.88879 -3.91517,-2.48015 -5.82751,-1.22098c-3.25036,2.06619 -1.7049,5.37801 0.51306,7.12125z" id="path2388"/>
   </g>
  </g>
 </g>
</svg>
