<?xml version="1.0" encoding="UTF-8" standalone="no"?>
<svg
   xmlns:dc="http://purl.org/dc/elements/1.1/"
   xmlns:cc="http://creativecommons.org/ns#"
   xmlns:rdf="http://www.w3.org/1999/02/22-rdf-syntax-ns#"
   xmlns:svg="http://www.w3.org/2000/svg"
   xmlns="http://www.w3.org/2000/svg"
   height="150"
   width="153.60001"
   version="1.1"
   id="Capa_1"
   x="0px"
   y="0px"
   viewBox="0 0 62.460181 49.691629"
   xml:space="preserve"><metadata
     id="metadata3721"><rdf:RDF><cc:Work
         rdf:about=""><dc:format>image/svg+xml</dc:format><dc:type
           rdf:resource="http://purl.org/dc/dcmitype/StillImage" /><dc:title></dc:title></cc:Work></rdf:RDF></metadata><defs
     id="defs3719"><marker
       style="overflow:visible"
       id="Arrow1Lend"
       refX="0"
       refY="0"
       orient="auto"><path
         transform="matrix(-0.8,0,0,-0.8,-10,0)"
         style="fill:#000000;fill-opacity:1;fill-rule:evenodd;stroke:#000000;stroke-width:1.00000003pt;stroke-opacity:1"
         d="M 0,0 5,-5 -12.5,0 5,5 Z"
         id="path4605" /></marker></defs><g
     transform="matrix(0.414,0,0,0.414,102.71241,44.122733)"
     id="g3684"><circle
       transform="matrix(0.98222661,0,0,0.98222661,-261.063,-325.3922)"
       r="0"
       cy="0"
       cx="0"
       id="path4574" /><circle
       r="73.666992"
       cy="-46.562603"
       cx="-172.66261"
       id="path5010"
       style="fill:#a5b076;fill-opacity:1;stroke-width:2.6564033;stroke-linecap:round;stroke-linejoin:round;stroke-miterlimit:4;stroke-dasharray:63.75367729, 63.75367729;stroke-dashoffset:0;paint-order:fill markers stroke" /><path
       style="fill:#ecf0f1;fill-opacity:1;stroke:none;stroke-width:0.30235103;stroke-opacity:1"
       id="path3680"
       d="m -172.384,-70.231537 c 1.38012,0 4.04109,-1.713784 7.90983,-5.094495 2.67186,-2.33446 6.01158,-5.60506 7.37139,-7.781634 1.03089,-1.649571 2.19237,-3.969759 2.0235,-7.294018 -0.2808,-5.526273 -4.51737,-9.855226 -9.64452,-9.855226 -3.65535,0 -6.21846,2.83913 -7.63812,4.466985 -1.34682,-1.60211 -3.93237,-4.466985 -7.71087,-4.466985 -5.12688,0 -9.36339,4.328953 -9.64455,9.85553 -0.171,3.36769 1.07334,5.776287 2.0244,7.294957 2.10102,3.356829 12.25245,12.874886 15.30894,12.874886 z" /><path
       style="fill:#ecf0f1;fill-opacity:1;stroke:none;stroke-width:0.30235103;stroke-opacity:1"
       id="path3682"
       d="m -152.7691,-65.86144 c -7.40409,0 -14.27007,2.470943 -19.89351,6.669311 -5.62344,-4.198677 -12.48939,-6.669311 -19.89351,-6.669311 -19.00284,0 -34.46295,16.271731 -34.46295,36.271898 0,20.0001608 15.46011,36.2718894 34.46268,36.2718894 7.40409,0 14.27004,-2.4706299 19.89351,-6.66930633 5.62341,4.19867643 12.48936,6.66930633 19.89348,6.66930633 19.00287,0 34.46271,-16.2714184 34.46271,-36.2718894 0,-20.000476 -15.45984,-36.271898 -34.46241,-36.271898 z m -19.89351,53.244645 c -3.579,-4.638209 -5.72775,-10.546008 -5.72775,-16.972747 0,-6.426742 2.14845,-12.334851 5.72775,-16.973062 3.579,4.638211 5.72778,10.546005 5.72778,16.973062 0,6.427047 -2.14878,12.334848 -5.72778,16.972747 z m -45.51504,-16.972747 c 0,-14.869385 11.49381,-26.966631 25.62126,-26.966631 4.83624,0 9.36336,1.418169 13.22676,3.879184 -4.9338,6.276614 -7.90215,14.323767 -7.90215,23.087138 0,8.763367 2.96835,16.810518 7.90215,23.087128 -3.8634,2.4610155 -8.39052,3.8791843 -13.22676,3.8791843 -14.12745,3.108e-4 -25.62126,-12.0966263 -25.62126,-26.9660033 z m 65.40855,26.9663141 c -4.83597,0 -9.36339,-1.4181687 -13.22679,-3.8791843 4.93383,-6.2766098 7.90218,-14.3237608 7.90218,-23.0871298 0,-8.763375 -2.96835,-16.810833 -7.90218,-23.087136 3.8634,-2.461018 8.39052,-3.879184 13.22679,-3.879184 14.12772,0 25.62126,12.097249 25.62126,26.966626 0,14.869381 -11.49384,26.9660081 -25.62126,26.9660081 z" /></g><g
     transform="translate(-5.3676763,-76.689642)"
     id="g3686" /><g
     transform="translate(-5.3676763,-76.689642)"
     id="g3688" /><g
     transform="translate(-5.3676763,-76.689642)"
     id="g3690" /><g
     transform="translate(-5.3676763,-76.689642)"
     id="g3692" /><g
     transform="translate(-5.3676763,-76.689642)"
     id="g3694" /><g
     transform="translate(-5.3676763,-76.689642)"
     id="g3696" /><g
     transform="translate(-5.3676763,-76.689642)"
     id="g3698" /><g
     transform="translate(-5.3676763,-76.689642)"
     id="g3700" /><g
     transform="translate(-5.3676763,-76.689642)"
     id="g3702" /><g
     transform="translate(-5.3676763,-76.689642)"
     id="g3704" /><g
     transform="translate(-5.3676763,-76.689642)"
     style="display:inline"
     id="g3706" /><g
     transform="translate(-5.3676763,-76.689642)"
     id="g3708" /><g
     transform="translate(-5.3676763,-76.689642)"
     id="g3710" /><g
     transform="translate(-5.3676763,-76.689642)"
     id="g3712" /><g
     transform="translate(-5.3676763,-76.689642)"
     id="g3714" /></svg>
